<?xml version="1.0" encoding="UTF-8" standalone="no"?>
<!DOCTYPE svg PUBLIC "-//W3C//DTD SVG 1.1//EN"
 "http://www.w3.org/Graphics/SVG/1.1/DTD/svg11.dtd">
<!-- Generated by graphviz version 2.44.0 (0)
 -->
<!-- Title: snakemake_dag Pages: 1 -->
<svg width="2673pt" height="692pt"
 viewBox="0.00 0.00 2672.60 692.00" xmlns="http://www.w3.org/2000/svg" xmlns:xlink="http://www.w3.org/1999/xlink">
<g id="graph0" class="graph" transform="scale(1 1) rotate(0) translate(4 688)">
<title>snakemake_dag</title>
<polygon fill="white" stroke="transparent" points="-4,4 -4,-688 2668.6,-688 2668.6,4 -4,4"/>
<!-- 0 -->
<g id="node1" class="node">
<title>0</title>
<path fill="none" stroke="#d86656" stroke-width="2" d="M883.34,-36C883.34,-36 853.34,-36 853.34,-36 847.34,-36 841.34,-30 841.34,-24 841.34,-24 841.34,-12 841.34,-12 841.34,-6 847.34,0 853.34,0 853.34,0 883.34,0 883.34,0 889.34,0 895.34,-6 895.34,-12 895.34,-12 895.34,-24 895.34,-24 895.34,-30 889.34,-36 883.34,-36"/>
<text text-anchor="middle" x="868.34" y="-15.5" font-family="sans" font-size="10.00">all</text>
</g>
<!-- 1 -->
<g id="node2" class="node">
<title>1</title>
<path fill="none" stroke="#56d892" stroke-width="2" d="M42.34,-180C42.34,-180 12.34,-180 12.34,-180 6.34,-180 0.34,-174 0.34,-168 0.34,-168 0.34,-156 0.34,-156 0.34,-150 6.34,-144 12.34,-144 12.34,-144 42.34,-144 42.34,-144 48.34,-144 54.34,-150 54.34,-156 54.34,-156 54.34,-168 54.34,-168 54.34,-174 48.34,-180 42.34,-180"/>
<text text-anchor="middle" x="27.34" y="-159.5" font-family="sans" font-size="10.00">fastqc</text>
</g>
<!-- 1&#45;&gt;0 -->
<g id="edge29" class="edge">
<title>1&#45;&gt;0</title>
<path fill="none" stroke="grey" stroke-width="2" d="M16.19,-143.87C4.78,-123.98 -8.91,-91.41 9.34,-72 37.88,-41.64 669.2,-23.94 830.89,-19.9"/>
<polygon fill="grey" stroke="grey" stroke-width="2" points="831.36,-23.38 841.27,-19.64 831.19,-16.39 831.36,-23.38"/>
</g>
<!-- 32 -->
<g id="node33" class="node">
<title>32</title>
<path fill="none" stroke="#56d8b9" stroke-width="2" d="M95.84,-108C95.84,-108 30.84,-108 30.84,-108 24.84,-108 18.84,-102 18.84,-96 18.84,-96 18.84,-84 18.84,-84 18.84,-78 24.84,-72 30.84,-72 30.84,-72 95.84,-72 95.84,-72 101.84,-72 107.84,-78 107.84,-84 107.84,-84 107.84,-96 107.84,-96 107.84,-102 101.84,-108 95.84,-108"/>
<text text-anchor="middle" x="63.34" y="-87.5" font-family="sans" font-size="10.00">multiqc_fastqc</text>
</g>
<!-- 1&#45;&gt;32 -->
<g id="edge64" class="edge">
<title>1&#45;&gt;32</title>
<path fill="none" stroke="grey" stroke-width="2" d="M36.24,-143.7C40.33,-135.73 45.29,-126.1 49.83,-117.26"/>
<polygon fill="grey" stroke="grey" stroke-width="2" points="53.08,-118.6 54.54,-108.1 46.85,-115.4 53.08,-118.6"/>
</g>
<!-- 2 -->
<g id="node3" class="node">
<title>2</title>
<path fill="none" stroke="#56d882" stroke-width="2" d="M904.34,-684C904.34,-684 874.34,-684 874.34,-684 868.34,-684 862.34,-678 862.34,-672 862.34,-672 862.34,-660 862.34,-660 862.34,-654 868.34,-648 874.34,-648 874.34,-648 904.34,-648 904.34,-648 910.34,-648 916.34,-654 916.34,-660 916.34,-660 916.34,-672 916.34,-672 916.34,-678 910.34,-684 904.34,-684"/>
<text text-anchor="middle" x="889.34" y="-663.5" font-family="sans" font-size="10.00">fastp</text>
</g>
<!-- 2&#45;&gt;0 -->
<g id="edge2" class="edge">
<title>2&#45;&gt;0</title>
<path fill="none" stroke="grey" stroke-width="2" d="M862.09,-662.82C727.1,-651.64 136.34,-598.41 136.34,-523 136.34,-523 136.34,-523 136.34,-161 136.34,-117.81 140.12,-96.99 175.34,-72 228.99,-33.93 694.19,-22.26 830.78,-19.64"/>
<polygon fill="grey" stroke="grey" stroke-width="2" points="831.21,-23.13 841.14,-19.44 831.08,-16.13 831.21,-23.13"/>
</g>
<!-- 3 -->
<g id="node4" class="node">
<title>3</title>
<path fill="none" stroke="#d88d56" stroke-width="2" d="M1400.84,-612C1400.84,-612 1339.84,-612 1339.84,-612 1333.84,-612 1327.84,-606 1327.84,-600 1327.84,-600 1327.84,-588 1327.84,-588 1327.84,-582 1333.84,-576 1339.84,-576 1339.84,-576 1400.84,-576 1400.84,-576 1406.84,-576 1412.84,-582 1412.84,-588 1412.84,-588 1412.84,-600 1412.84,-600 1412.84,-606 1406.84,-612 1400.84,-612"/>
<text text-anchor="middle" x="1370.34" y="-591.5" font-family="sans" font-size="10.00">bowtie2_align</text>
</g>
<!-- 2&#45;&gt;3 -->
<g id="edge31" class="edge">
<title>2&#45;&gt;3</title>
<path fill="none" stroke="grey" stroke-width="2" d="M916.58,-661.04C993.82,-649.8 1215.25,-617.57 1317.47,-602.69"/>
<polygon fill="grey" stroke="grey" stroke-width="2" points="1318.17,-606.13 1327.57,-601.22 1317.17,-599.2 1318.17,-606.13"/>
</g>
<!-- 3&#45;&gt;0 -->
<g id="edge28" class="edge">
<title>3&#45;&gt;0</title>
<path fill="none" stroke="grey" stroke-width="2" d="M1327.77,-592.51C1114.72,-589.53 174.34,-569.66 174.34,-451 174.34,-451 174.34,-451 174.34,-161 174.34,-118.81 173.7,-97.46 207.34,-72 257.22,-34.25 698.93,-22.39 831.12,-19.68"/>
<polygon fill="grey" stroke="grey" stroke-width="2" points="831.24,-23.18 841.17,-19.48 831.1,-16.18 831.24,-23.18"/>
</g>
<!-- 5 -->
<g id="node6" class="node">
<title>5</title>
<path fill="none" stroke="#5673d8" stroke-width="2" d="M2004.34,-540C2004.34,-540 1882.34,-540 1882.34,-540 1876.34,-540 1870.34,-534 1870.34,-528 1870.34,-528 1870.34,-516 1870.34,-516 1870.34,-510 1876.34,-504 1882.34,-504 1882.34,-504 2004.34,-504 2004.34,-504 2010.34,-504 2016.34,-510 2016.34,-516 2016.34,-516 2016.34,-528 2016.34,-528 2016.34,-534 2010.34,-540 2004.34,-540"/>
<text text-anchor="middle" x="1943.34" y="-519.5" font-family="sans" font-size="10.00">samtools_sort_filter_index</text>
</g>
<!-- 3&#45;&gt;5 -->
<g id="edge32" class="edge">
<title>3&#45;&gt;5</title>
<path fill="none" stroke="grey" stroke-width="2" d="M1412.94,-587.8C1507.41,-576.25 1735.92,-548.34 1859.93,-533.19"/>
<polygon fill="grey" stroke="grey" stroke-width="2" points="1860.64,-536.63 1870.14,-531.94 1859.79,-529.68 1860.64,-536.63"/>
</g>
<!-- 33 -->
<g id="node34" class="node">
<title>33</title>
<path fill="none" stroke="#56b9d8" stroke-width="2" d="M1671.34,-108C1671.34,-108 1633.34,-108 1633.34,-108 1627.34,-108 1621.34,-102 1621.34,-96 1621.34,-96 1621.34,-84 1621.34,-84 1621.34,-78 1627.34,-72 1633.34,-72 1633.34,-72 1671.34,-72 1671.34,-72 1677.34,-72 1683.34,-78 1683.34,-84 1683.34,-84 1683.34,-96 1683.34,-96 1683.34,-102 1677.34,-108 1671.34,-108"/>
<text text-anchor="middle" x="1652.34" y="-87.5" font-family="sans" font-size="10.00">qc_report</text>
</g>
<!-- 3&#45;&gt;33 -->
<g id="edge78" class="edge">
<title>3&#45;&gt;33</title>
<path fill="none" stroke="grey" stroke-width="2" d="M1412.85,-586.27C1511.45,-569.45 1747.34,-521.81 1747.34,-451 1747.34,-451 1747.34,-451 1747.34,-233 1747.34,-185.01 1709.39,-140.96 1681.47,-115.04"/>
<polygon fill="grey" stroke="grey" stroke-width="2" points="1683.67,-112.31 1673.89,-108.22 1678.98,-117.52 1683.67,-112.31"/>
</g>
<!-- 4 -->
<g id="node5" class="node">
<title>4</title>
<path fill="none" stroke="#d89c56" stroke-width="2" d="M1417.34,-684C1417.34,-684 1323.34,-684 1323.34,-684 1317.34,-684 1311.34,-678 1311.34,-672 1311.34,-672 1311.34,-660 1311.34,-660 1311.34,-654 1317.34,-648 1323.34,-648 1323.34,-648 1417.34,-648 1417.34,-648 1423.34,-648 1429.34,-654 1429.34,-660 1429.34,-660 1429.34,-672 1429.34,-672 1429.34,-678 1423.34,-684 1417.34,-684"/>
<text text-anchor="middle" x="1370.34" y="-663.5" font-family="sans" font-size="10.00">build_genome_index</text>
</g>
<!-- 4&#45;&gt;3 -->
<g id="edge30" class="edge">
<title>4&#45;&gt;3</title>
<path fill="none" stroke="grey" stroke-width="2" d="M1370.34,-647.7C1370.34,-639.98 1370.34,-630.71 1370.34,-622.11"/>
<polygon fill="grey" stroke="grey" stroke-width="2" points="1373.84,-622.1 1370.34,-612.1 1366.84,-622.1 1373.84,-622.1"/>
</g>
<!-- 5&#45;&gt;0 -->
<g id="edge26" class="edge">
<title>5&#45;&gt;0</title>
<path fill="none" stroke="grey" stroke-width="2" d="M2016.41,-521.29C2194.29,-520.05 2635.34,-504.33 2635.34,-379 2635.34,-379 2635.34,-379 2635.34,-161 2635.34,-118.82 2764.65,-146.3 2473.34,-72 2317.02,-32.13 1131.42,-21.03 905.47,-19.27"/>
<polygon fill="grey" stroke="grey" stroke-width="2" points="905.47,-15.77 895.45,-19.19 905.42,-22.77 905.47,-15.77"/>
</g>
<!-- 6 -->
<g id="node7" class="node">
<title>6</title>
<path fill="none" stroke="#5692d8" stroke-width="2" d="M1486.34,-468C1486.34,-468 1400.34,-468 1400.34,-468 1394.34,-468 1388.34,-462 1388.34,-456 1388.34,-456 1388.34,-444 1388.34,-444 1388.34,-438 1394.34,-432 1400.34,-432 1400.34,-432 1486.34,-432 1486.34,-432 1492.34,-432 1498.34,-438 1498.34,-444 1498.34,-444 1498.34,-456 1498.34,-456 1498.34,-462 1492.34,-468 1486.34,-468"/>
<text text-anchor="middle" x="1443.34" y="-447.5" font-family="sans" font-size="10.00">remove_duplicates</text>
</g>
<!-- 5&#45;&gt;6 -->
<g id="edge33" class="edge">
<title>5&#45;&gt;6</title>
<path fill="none" stroke="grey" stroke-width="2" d="M1870.1,-510.75C1772.71,-497.11 1602.05,-473.22 1508.77,-460.16"/>
<polygon fill="grey" stroke="grey" stroke-width="2" points="1509,-456.66 1498.61,-458.74 1508.03,-463.59 1509,-456.66"/>
</g>
<!-- 29 -->
<g id="node30" class="node">
<title>29</title>
<path fill="none" stroke="#d8ac56" stroke-width="2" d="M2595.34,-180C2595.34,-180 2461.34,-180 2461.34,-180 2455.34,-180 2449.34,-174 2449.34,-168 2449.34,-168 2449.34,-156 2449.34,-156 2449.34,-150 2455.34,-144 2461.34,-144 2461.34,-144 2595.34,-144 2595.34,-144 2601.34,-144 2607.34,-150 2607.34,-156 2607.34,-156 2607.34,-168 2607.34,-168 2607.34,-174 2601.34,-180 2595.34,-180"/>
<text text-anchor="middle" x="2528.34" y="-159.5" font-family="sans" font-size="10.00">calculate_library_complexity</text>
</g>
<!-- 5&#45;&gt;29 -->
<g id="edge60" class="edge">
<title>5&#45;&gt;29</title>
<path fill="none" stroke="grey" stroke-width="2" d="M2016.52,-514.18C2148.62,-499.84 2413.34,-460.88 2413.34,-379 2413.34,-379 2413.34,-379 2413.34,-305 2413.34,-253.97 2458.75,-211 2492.5,-186.11"/>
<polygon fill="grey" stroke="grey" stroke-width="2" points="2494.69,-188.84 2500.79,-180.18 2490.62,-183.15 2494.69,-188.84"/>
</g>
<!-- 5&#45;&gt;33 -->
<g id="edge72" class="edge">
<title>5&#45;&gt;33</title>
<path fill="none" stroke="grey" stroke-width="2" d="M1943.34,-503.95C1943.34,-477.29 1943.34,-424.11 1943.34,-379 1943.34,-379 1943.34,-379 1943.34,-233 1943.34,-192.55 1953.2,-172.34 1924.34,-144 1864.57,-85.31 1821.55,-124.03 1739.34,-108 1724.39,-105.08 1707.99,-101.88 1693.5,-99.05"/>
<polygon fill="grey" stroke="grey" stroke-width="2" points="1693.83,-95.55 1683.34,-97.06 1692.48,-102.42 1693.83,-95.55"/>
</g>
<!-- 6&#45;&gt;0 -->
<g id="edge3" class="edge">
<title>6&#45;&gt;0</title>
<path fill="none" stroke="grey" stroke-width="2" d="M1388.05,-448.52C1148.52,-445.71 212.34,-427.07 212.34,-307 212.34,-307 212.34,-307 212.34,-161 212.34,-120.55 200.98,-98.72 231.34,-72 276.46,-32.29 701.47,-21.83 831.03,-19.56"/>
<polygon fill="grey" stroke="grey" stroke-width="2" points="831.3,-23.05 841.24,-19.38 831.18,-16.05 831.3,-23.05"/>
</g>
<!-- 7 -->
<g id="node8" class="node">
<title>7</title>
<path fill="none" stroke="#56d8a2" stroke-width="2" d="M817.34,-396C817.34,-396 755.34,-396 755.34,-396 749.34,-396 743.34,-390 743.34,-384 743.34,-384 743.34,-372 743.34,-372 743.34,-366 749.34,-360 755.34,-360 755.34,-360 817.34,-360 817.34,-360 823.34,-360 829.34,-366 829.34,-372 829.34,-372 829.34,-384 829.34,-384 829.34,-390 823.34,-396 817.34,-396"/>
<text text-anchor="middle" x="786.34" y="-375.5" font-family="sans" font-size="10.00">filter_blacklist</text>
</g>
<!-- 6&#45;&gt;7 -->
<g id="edge34" class="edge">
<title>6&#45;&gt;7</title>
<path fill="none" stroke="grey" stroke-width="2" d="M1388.17,-443.12C1263.76,-429.87 962.67,-397.79 839.85,-384.7"/>
<polygon fill="grey" stroke="grey" stroke-width="2" points="839.88,-381.19 829.57,-383.61 839.14,-388.15 839.88,-381.19"/>
</g>
<!-- 9 -->
<g id="node10" class="node">
<title>9</title>
<path fill="none" stroke="#d88556" stroke-width="2" d="M1474.84,-252C1474.84,-252 1411.84,-252 1411.84,-252 1405.84,-252 1399.84,-246 1399.84,-240 1399.84,-240 1399.84,-228 1399.84,-228 1399.84,-222 1405.84,-216 1411.84,-216 1411.84,-216 1474.84,-216 1474.84,-216 1480.84,-216 1486.84,-222 1486.84,-228 1486.84,-228 1486.84,-240 1486.84,-240 1486.84,-246 1480.84,-252 1474.84,-252"/>
<text text-anchor="middle" x="1443.34" y="-231.5" font-family="sans" font-size="10.00">blacklist_stats</text>
</g>
<!-- 6&#45;&gt;9 -->
<g id="edge36" class="edge">
<title>6&#45;&gt;9</title>
<path fill="none" stroke="grey" stroke-width="2" d="M1443.34,-431.85C1443.34,-394.83 1443.34,-307.18 1443.34,-262.39"/>
<polygon fill="grey" stroke="grey" stroke-width="2" points="1446.84,-262.23 1443.34,-252.23 1439.84,-262.23 1446.84,-262.23"/>
</g>
<!-- 6&#45;&gt;33 -->
<g id="edge76" class="edge">
<title>6&#45;&gt;33</title>
<path fill="none" stroke="grey" stroke-width="2" d="M1498.45,-443.98C1576.37,-433.5 1709.34,-401.75 1709.34,-307 1709.34,-307 1709.34,-307 1709.34,-233 1709.34,-189.8 1686.34,-144.19 1669.56,-116.66"/>
<polygon fill="grey" stroke="grey" stroke-width="2" points="1672.43,-114.65 1664.15,-108.04 1666.5,-118.37 1672.43,-114.65"/>
</g>
<!-- 7&#45;&gt;0 -->
<g id="edge13" class="edge">
<title>7&#45;&gt;0</title>
<path fill="none" stroke="grey" stroke-width="2" d="M743.13,-377C652.51,-376.11 446.82,-369.02 396.34,-324 310.78,-247.7 264.44,-157.02 341.34,-72 374.16,-35.71 716.73,-23.13 831.27,-19.92"/>
<polygon fill="grey" stroke="grey" stroke-width="2" points="831.42,-23.41 841.32,-19.64 831.23,-16.42 831.42,-23.41"/>
</g>
<!-- 8 -->
<g id="node9" class="node">
<title>8</title>
<path fill="none" stroke="#d8bc56" stroke-width="2" d="M613.34,-324C613.34,-324 569.34,-324 569.34,-324 563.34,-324 557.34,-318 557.34,-312 557.34,-312 557.34,-300 557.34,-300 557.34,-294 563.34,-288 569.34,-288 569.34,-288 613.34,-288 613.34,-288 619.34,-288 625.34,-294 625.34,-300 625.34,-300 625.34,-312 625.34,-312 625.34,-318 619.34,-324 613.34,-324"/>
<text text-anchor="middle" x="591.34" y="-303.5" font-family="sans" font-size="10.00">call_peaks</text>
</g>
<!-- 7&#45;&gt;8 -->
<g id="edge35" class="edge">
<title>7&#45;&gt;8</title>
<path fill="none" stroke="grey" stroke-width="2" d="M743.06,-361.46C710.93,-349.93 667.27,-334.26 635.04,-322.69"/>
<polygon fill="grey" stroke="grey" stroke-width="2" points="636.02,-319.32 625.43,-319.24 633.66,-325.91 636.02,-319.32"/>
</g>
<!-- 7&#45;&gt;9 -->
<g id="edge37" class="edge">
<title>7&#45;&gt;9</title>
<path fill="none" stroke="grey" stroke-width="2" d="M829.57,-374.97C936.49,-369.55 1210.93,-353.15 1297.34,-324 1341.18,-309.21 1385.76,-279.43 1413.93,-258.41"/>
<polygon fill="grey" stroke="grey" stroke-width="2" points="1416.27,-261.02 1422.12,-252.19 1412.04,-255.44 1416.27,-261.02"/>
</g>
<!-- 10 -->
<g id="node11" class="node">
<title>10</title>
<path fill="none" stroke="#c6d856" stroke-width="2" d="M898.84,-324C898.84,-324 837.84,-324 837.84,-324 831.84,-324 825.84,-318 825.84,-312 825.84,-312 825.84,-300 825.84,-300 825.84,-294 831.84,-288 837.84,-288 837.84,-288 898.84,-288 898.84,-288 904.84,-288 910.84,-294 910.84,-300 910.84,-300 910.84,-312 910.84,-312 910.84,-318 904.84,-324 898.84,-324"/>
<text text-anchor="middle" x="868.34" y="-303.5" font-family="sans" font-size="10.00">create_bigwig</text>
</g>
<!-- 7&#45;&gt;10 -->
<g id="edge38" class="edge">
<title>7&#45;&gt;10</title>
<path fill="none" stroke="grey" stroke-width="2" d="M806.61,-359.7C816.84,-350.97 829.4,-340.24 840.52,-330.75"/>
<polygon fill="grey" stroke="grey" stroke-width="2" points="842.97,-333.26 848.3,-324.1 838.42,-327.94 842.97,-333.26"/>
</g>
<!-- 13 -->
<g id="node14" class="node">
<title>13</title>
<path fill="none" stroke="#56a2d8" stroke-width="2" d="M519.84,-324C519.84,-324 456.84,-324 456.84,-324 450.84,-324 444.84,-318 444.84,-312 444.84,-312 444.84,-300 444.84,-300 444.84,-294 450.84,-288 456.84,-288 456.84,-288 519.84,-288 519.84,-288 525.84,-288 531.84,-294 531.84,-300 531.84,-300 531.84,-312 531.84,-312 531.84,-318 525.84,-324 519.84,-324"/>
<text text-anchor="middle" x="488.34" y="-303.5" font-family="sans" font-size="10.00">relaxed_peaks</text>
</g>
<!-- 7&#45;&gt;13 -->
<g id="edge42" class="edge">
<title>7&#45;&gt;13</title>
<path fill="none" stroke="grey" stroke-width="2" d="M743.17,-368.16C695.35,-358.19 616.05,-341.12 548.34,-324 546.16,-323.45 543.95,-322.88 541.71,-322.29"/>
<polygon fill="grey" stroke="grey" stroke-width="2" points="542.41,-318.85 531.84,-319.64 540.59,-325.62 542.41,-318.85"/>
</g>
<!-- 14 -->
<g id="node15" class="node">
<title>14</title>
<path fill="none" stroke="#d6d856" stroke-width="2" d="M493.84,-108C493.84,-108 362.84,-108 362.84,-108 356.84,-108 350.84,-102 350.84,-96 350.84,-96 350.84,-84 350.84,-84 350.84,-78 356.84,-72 362.84,-72 362.84,-72 493.84,-72 493.84,-72 499.84,-72 505.84,-78 505.84,-84 505.84,-84 505.84,-96 505.84,-96 505.84,-102 499.84,-108 493.84,-108"/>
<text text-anchor="middle" x="428.34" y="-87.5" font-family="sans" font-size="10.00">count_fragments_consensus</text>
</g>
<!-- 7&#45;&gt;14 -->
<g id="edge44" class="edge">
<title>7&#45;&gt;14</title>
<path fill="none" stroke="grey" stroke-width="2" d="M743.12,-375.27C660.52,-371.2 484.08,-358.61 435.34,-324 368.6,-276.6 374.38,-222.86 396.34,-144 399.01,-134.42 403.93,-124.84 409.12,-116.51"/>
<polygon fill="grey" stroke="grey" stroke-width="2" points="412.14,-118.29 414.77,-108.03 406.32,-114.41 412.14,-118.29"/>
</g>
<!-- 15 -->
<g id="node16" class="node">
<title>15</title>
<path fill="none" stroke="#bed856" stroke-width="2" d="M787.34,-108C787.34,-108 695.34,-108 695.34,-108 689.34,-108 683.34,-102 683.34,-96 683.34,-96 683.34,-84 683.34,-84 683.34,-78 689.34,-72 695.34,-72 695.34,-72 787.34,-72 787.34,-72 793.34,-72 799.34,-78 799.34,-84 799.34,-84 799.34,-96 799.34,-96 799.34,-102 793.34,-108 787.34,-108"/>
<text text-anchor="middle" x="741.34" y="-87.5" font-family="sans" font-size="10.00">deeptools_bedgraph</text>
</g>
<!-- 7&#45;&gt;15 -->
<g id="edge45" class="edge">
<title>7&#45;&gt;15</title>
<path fill="none" stroke="grey" stroke-width="2" d="M778.82,-359.78C764.56,-326.07 734.05,-248.65 723.34,-180 720.87,-164.19 720.73,-159.79 723.34,-144 724.78,-135.28 727.47,-126.06 730.34,-117.8"/>
<polygon fill="grey" stroke="grey" stroke-width="2" points="733.67,-118.89 733.86,-108.3 727.1,-116.46 733.67,-118.89"/>
</g>
<!-- 16 -->
<g id="node17" class="node">
<title>16</title>
<path fill="none" stroke="#70d856" stroke-width="2" d="M1593.34,-180C1593.34,-180 1483.34,-180 1483.34,-180 1477.34,-180 1471.34,-174 1471.34,-168 1471.34,-168 1471.34,-156 1471.34,-156 1471.34,-150 1477.34,-144 1483.34,-144 1483.34,-144 1593.34,-144 1593.34,-144 1599.34,-144 1605.34,-150 1605.34,-156 1605.34,-156 1605.34,-168 1605.34,-168 1605.34,-174 1599.34,-180 1593.34,-180"/>
<text text-anchor="middle" x="1538.34" y="-159.5" font-family="sans" font-size="10.00">deeptools_fragmentsize</text>
</g>
<!-- 7&#45;&gt;16 -->
<g id="edge46" class="edge">
<title>7&#45;&gt;16</title>
<path fill="none" stroke="grey" stroke-width="2" d="M829.42,-366.23C870.79,-355.78 934.97,-339.32 990.34,-324 1165.32,-275.58 1370.32,-214.06 1472.89,-182.95"/>
<polygon fill="grey" stroke="grey" stroke-width="2" points="1473.94,-186.29 1482.49,-180.04 1471.91,-179.6 1473.94,-186.29"/>
</g>
<!-- 17 -->
<g id="node18" class="node">
<title>17</title>
<path fill="none" stroke="#59d856" stroke-width="2" d="M1902.84,-180C1902.84,-180 1787.84,-180 1787.84,-180 1781.84,-180 1775.84,-174 1775.84,-168 1775.84,-168 1775.84,-156 1775.84,-156 1775.84,-150 1781.84,-144 1787.84,-144 1787.84,-144 1902.84,-144 1902.84,-144 1908.84,-144 1914.84,-150 1914.84,-156 1914.84,-156 1914.84,-168 1914.84,-168 1914.84,-174 1908.84,-180 1902.84,-180"/>
<text text-anchor="middle" x="1845.34" y="-159.5" font-family="sans" font-size="10.00">deeptools_plotfingerprint</text>
</g>
<!-- 7&#45;&gt;17 -->
<g id="edge47" class="edge">
<title>7&#45;&gt;17</title>
<path fill="none" stroke="grey" stroke-width="2" d="M829.67,-376.1C924.36,-373.44 1156.48,-363.13 1346.34,-324 1513.86,-289.48 1704.3,-218.89 1793.76,-183.79"/>
<polygon fill="grey" stroke="grey" stroke-width="2" points="1795.11,-187.02 1803.13,-180.09 1792.54,-180.5 1795.11,-187.02"/>
</g>
<!-- 18 -->
<g id="node19" class="node">
<title>18</title>
<path fill="none" stroke="#9fd856" stroke-width="2" d="M2256.84,-252C2256.84,-252 2143.84,-252 2143.84,-252 2137.84,-252 2131.84,-246 2131.84,-240 2131.84,-240 2131.84,-228 2131.84,-228 2131.84,-222 2137.84,-216 2143.84,-216 2143.84,-216 2256.84,-216 2256.84,-216 2262.84,-216 2268.84,-222 2268.84,-228 2268.84,-228 2268.84,-240 2268.84,-240 2268.84,-246 2262.84,-252 2256.84,-252"/>
<text text-anchor="middle" x="2200.34" y="-231.5" font-family="sans" font-size="10.00">deeptools_cor_multibam</text>
</g>
<!-- 7&#45;&gt;18 -->
<g id="edge48" class="edge">
<title>7&#45;&gt;18</title>
<path fill="none" stroke="grey" stroke-width="2" d="M829.53,-375.87C1000.68,-371.23 1631.49,-352.51 1829.34,-324 1937.57,-308.4 2060.49,-275.91 2134.15,-254.8"/>
<polygon fill="grey" stroke="grey" stroke-width="2" points="2135.13,-258.16 2143.77,-252.03 2133.19,-251.43 2135.13,-258.16"/>
</g>
<!-- 22 -->
<g id="node23" class="node">
<title>22</title>
<path fill="none" stroke="#68d856" stroke-width="2" d="M827.84,-180C827.84,-180 744.84,-180 744.84,-180 738.84,-180 732.84,-174 732.84,-168 732.84,-168 732.84,-156 732.84,-156 732.84,-150 738.84,-144 744.84,-144 744.84,-144 827.84,-144 827.84,-144 833.84,-144 839.84,-150 839.84,-156 839.84,-156 839.84,-168 839.84,-168 839.84,-174 833.84,-180 827.84,-180"/>
<text text-anchor="middle" x="786.34" y="-159.5" font-family="sans" font-size="10.00">deeptools_gc_bias</text>
</g>
<!-- 7&#45;&gt;22 -->
<g id="edge52" class="edge">
<title>7&#45;&gt;22</title>
<path fill="none" stroke="grey" stroke-width="2" d="M786.34,-359.85C786.34,-322.83 786.34,-235.18 786.34,-190.39"/>
<polygon fill="grey" stroke="grey" stroke-width="2" points="789.84,-190.23 786.34,-180.23 782.84,-190.23 789.84,-190.23"/>
</g>
<!-- 26 -->
<g id="node27" class="node">
<title>26</title>
<path fill="none" stroke="#d85656" stroke-width="2" d="M661.34,-252C661.34,-252 631.34,-252 631.34,-252 625.34,-252 619.34,-246 619.34,-240 619.34,-240 619.34,-228 619.34,-228 619.34,-222 625.34,-216 631.34,-216 631.34,-216 661.34,-216 661.34,-216 667.34,-216 673.34,-222 673.34,-228 673.34,-228 673.34,-240 673.34,-240 673.34,-246 667.34,-252 661.34,-252"/>
<text text-anchor="middle" x="646.34" y="-231.5" font-family="sans" font-size="10.00">FRiP</text>
</g>
<!-- 7&#45;&gt;26 -->
<g id="edge57" class="edge">
<title>7&#45;&gt;26</title>
<path fill="none" stroke="grey" stroke-width="2" d="M742.88,-359.96C724.93,-351.27 704.94,-339.28 690.34,-324 673.48,-306.36 661.81,-281.02 654.75,-261.88"/>
<polygon fill="grey" stroke="grey" stroke-width="2" points="657.98,-260.53 651.38,-252.25 651.38,-262.84 657.98,-260.53"/>
</g>
<!-- 28 -->
<g id="node29" class="node">
<title>28</title>
<path fill="none" stroke="#56c9d8" stroke-width="2" d="M332.34,-324C332.34,-324 252.34,-324 252.34,-324 246.34,-324 240.34,-318 240.34,-312 240.34,-312 240.34,-300 240.34,-300 240.34,-294 246.34,-288 252.34,-288 252.34,-288 332.34,-288 332.34,-288 338.34,-288 344.34,-294 344.34,-300 344.34,-300 344.34,-312 344.34,-312 344.34,-318 338.34,-324 332.34,-324"/>
<text text-anchor="middle" x="292.34" y="-303.5" font-family="sans" font-size="10.00">qc_relaxed_peaks</text>
</g>
<!-- 7&#45;&gt;28 -->
<g id="edge59" class="edge">
<title>7&#45;&gt;28</title>
<path fill="none" stroke="grey" stroke-width="2" d="M743.22,-373.51C665.72,-366.84 497.92,-350.5 358.34,-324 357.06,-323.76 355.78,-323.51 354.48,-323.24"/>
<polygon fill="grey" stroke="grey" stroke-width="2" points="354.95,-319.76 344.44,-321.08 353.48,-326.61 354.95,-319.76"/>
</g>
<!-- 31 -->
<g id="node32" class="node">
<title>31</title>
<path fill="none" stroke="#56a9d8" stroke-width="2" d="M1402.84,-180C1402.84,-180 1305.84,-180 1305.84,-180 1299.84,-180 1293.84,-174 1293.84,-168 1293.84,-168 1293.84,-156 1293.84,-156 1293.84,-150 1299.84,-144 1305.84,-144 1305.84,-144 1402.84,-144 1402.84,-144 1408.84,-144 1414.84,-150 1414.84,-156 1414.84,-156 1414.84,-168 1414.84,-168 1414.84,-174 1408.84,-180 1402.84,-180"/>
<text text-anchor="middle" x="1354.34" y="-159.5" font-family="sans" font-size="10.00">reads_in_annotations</text>
</g>
<!-- 7&#45;&gt;31 -->
<g id="edge63" class="edge">
<title>7&#45;&gt;31</title>
<path fill="none" stroke="grey" stroke-width="2" d="M829.5,-360.74C931.38,-322.35 1186.7,-226.16 1299.41,-183.7"/>
<polygon fill="grey" stroke="grey" stroke-width="2" points="1300.77,-186.92 1308.89,-180.12 1298.3,-180.37 1300.77,-186.92"/>
</g>
<!-- 8&#45;&gt;0 -->
<g id="edge12" class="edge">
<title>8&#45;&gt;0</title>
<path fill="none" stroke="grey" stroke-width="2" d="M557.09,-293.43C551.5,-291.58 545.77,-289.72 540.34,-288 487.25,-271.19 454.5,-295.97 420.34,-252 390.88,-214.08 389.92,-183.42 417.34,-144 443.59,-106.25 475.99,-133.38 514.34,-108 532.69,-95.85 528.91,-82.34 548.34,-72 596.78,-46.22 756.96,-28.97 830.65,-22.21"/>
<polygon fill="grey" stroke="grey" stroke-width="2" points="831.22,-25.67 840.87,-21.29 830.59,-18.7 831.22,-25.67"/>
</g>
<!-- 11 -->
<g id="node12" class="node">
<title>11</title>
<path fill="none" stroke="#d8cb56" stroke-width="2" d="M516.34,-180C516.34,-180 438.34,-180 438.34,-180 432.34,-180 426.34,-174 426.34,-168 426.34,-168 426.34,-156 426.34,-156 426.34,-150 432.34,-144 438.34,-144 438.34,-144 516.34,-144 516.34,-144 522.34,-144 528.34,-150 528.34,-156 528.34,-156 528.34,-168 528.34,-168 528.34,-174 522.34,-180 516.34,-180"/>
<text text-anchor="middle" x="477.34" y="-159.5" font-family="sans" font-size="10.00">consensus_peaks</text>
</g>
<!-- 8&#45;&gt;11 -->
<g id="edge40" class="edge">
<title>8&#45;&gt;11</title>
<path fill="none" stroke="grey" stroke-width="2" d="M581.76,-287.78C571.07,-269.22 552.71,-239.23 533.34,-216 524.9,-205.88 514.67,-195.71 505.27,-187.02"/>
<polygon fill="grey" stroke="grey" stroke-width="2" points="507.4,-184.22 497.64,-180.1 502.7,-189.41 507.4,-184.22"/>
</g>
<!-- 8&#45;&gt;26 -->
<g id="edge56" class="edge">
<title>8&#45;&gt;26</title>
<path fill="none" stroke="grey" stroke-width="2" d="M604.93,-287.7C611.46,-279.39 619.41,-269.28 626.58,-260.14"/>
<polygon fill="grey" stroke="grey" stroke-width="2" points="629.47,-262.13 632.9,-252.1 623.97,-257.81 629.47,-262.13"/>
</g>
<!-- 30 -->
<g id="node31" class="node">
<title>30</title>
<path fill="none" stroke="#56d8c9" stroke-width="2" d="M664.34,-180C664.34,-180 596.34,-180 596.34,-180 590.34,-180 584.34,-174 584.34,-168 584.34,-168 584.34,-156 584.34,-156 584.34,-150 590.34,-144 596.34,-144 596.34,-144 664.34,-144 664.34,-144 670.34,-144 676.34,-150 676.34,-156 676.34,-156 676.34,-168 676.34,-168 676.34,-174 670.34,-180 664.34,-180"/>
<text text-anchor="middle" x="630.34" y="-159.5" font-family="sans" font-size="10.00">peak_summary</text>
</g>
<!-- 8&#45;&gt;30 -->
<g id="edge62" class="edge">
<title>8&#45;&gt;30</title>
<path fill="none" stroke="grey" stroke-width="2" d="M594.22,-287.75C597.43,-269.68 603.13,-240.56 610.34,-216 612.86,-207.41 616.11,-198.23 619.26,-189.97"/>
<polygon fill="grey" stroke="grey" stroke-width="2" points="622.61,-191.03 623,-180.44 616.09,-188.48 622.61,-191.03"/>
</g>
<!-- 9&#45;&gt;0 -->
<g id="edge8" class="edge">
<title>9&#45;&gt;0</title>
<path fill="none" stroke="grey" stroke-width="2" d="M1444.7,-215.78C1445.27,-195.79 1442.96,-163.14 1424.34,-144 1351.24,-68.86 1018.17,-32.47 905.62,-22.16"/>
<polygon fill="grey" stroke="grey" stroke-width="2" points="905.71,-18.65 895.43,-21.24 905.08,-25.62 905.71,-18.65"/>
</g>
<!-- 9&#45;&gt;33 -->
<g id="edge71" class="edge">
<title>9&#45;&gt;33</title>
<path fill="none" stroke="grey" stroke-width="2" d="M1486.97,-227.69C1540.67,-220.17 1627.22,-204.56 1647.34,-180 1661.24,-163.03 1661.28,-137.57 1658.55,-118.22"/>
<polygon fill="grey" stroke="grey" stroke-width="2" points="1661.96,-117.45 1656.81,-108.19 1655.07,-118.64 1661.96,-117.45"/>
</g>
<!-- 10&#45;&gt;0 -->
<g id="edge4" class="edge">
<title>10&#45;&gt;0</title>
<path fill="none" stroke="grey" stroke-width="2" d="M868.34,-287.97C868.34,-240.29 868.34,-105.18 868.34,-46.63"/>
<polygon fill="grey" stroke="grey" stroke-width="2" points="871.84,-46.31 868.34,-36.31 864.84,-46.31 871.84,-46.31"/>
</g>
<!-- 24 -->
<g id="node25" class="node">
<title>24</title>
<path fill="none" stroke="#56d863" stroke-width="2" d="M1064.34,-252C1064.34,-252 1004.34,-252 1004.34,-252 998.34,-252 992.34,-246 992.34,-240 992.34,-240 992.34,-228 992.34,-228 992.34,-222 998.34,-216 1004.34,-216 1004.34,-216 1064.34,-216 1064.34,-216 1070.34,-216 1076.34,-222 1076.34,-228 1076.34,-228 1076.34,-240 1076.34,-240 1076.34,-246 1070.34,-252 1064.34,-252"/>
<text text-anchor="middle" x="1034.34" y="-231.5" font-family="sans" font-size="10.00">deeptools_tss</text>
</g>
<!-- 10&#45;&gt;24 -->
<g id="edge54" class="edge">
<title>10&#45;&gt;24</title>
<path fill="none" stroke="grey" stroke-width="2" d="M908.95,-287.88C931.74,-278.26 960.36,-266.19 984.51,-256.01"/>
<polygon fill="grey" stroke="grey" stroke-width="2" points="986.01,-259.18 993.86,-252.07 983.29,-252.73 986.01,-259.18"/>
</g>
<!-- 11&#45;&gt;0 -->
<g id="edge11" class="edge">
<title>11&#45;&gt;0</title>
<path fill="none" stroke="grey" stroke-width="2" d="M500.37,-143.83C514.27,-133.46 532.33,-119.98 548.34,-108 569.69,-92.02 571.97,-82.82 596.34,-72 675.28,-36.94 777.27,-24.99 831.16,-20.98"/>
<polygon fill="grey" stroke="grey" stroke-width="2" points="831.54,-24.46 841.27,-20.28 831.06,-17.48 831.54,-24.46"/>
</g>
<!-- 11&#45;&gt;14 -->
<g id="edge43" class="edge">
<title>11&#45;&gt;14</title>
<path fill="none" stroke="grey" stroke-width="2" d="M465.23,-143.7C459.47,-135.47 452.48,-125.48 446.13,-116.42"/>
<polygon fill="grey" stroke="grey" stroke-width="2" points="448.91,-114.29 440.31,-108.1 443.18,-118.3 448.91,-114.29"/>
</g>
<!-- 11&#45;&gt;33 -->
<g id="edge79" class="edge">
<title>11&#45;&gt;33</title>
<path fill="none" stroke="grey" stroke-width="2" d="M528.54,-150.9C543.56,-148.27 560.06,-145.69 575.34,-144 976.95,-99.45 1466.97,-92.35 1610.81,-91.21"/>
<polygon fill="grey" stroke="grey" stroke-width="2" points="1610.97,-94.71 1620.95,-91.14 1610.92,-87.71 1610.97,-94.71"/>
</g>
<!-- 12 -->
<g id="node13" class="node">
<title>12</title>
<path fill="none" stroke="#5682d8" stroke-width="2" d="M512.84,-252C512.84,-252 441.84,-252 441.84,-252 435.84,-252 429.84,-246 429.84,-240 429.84,-240 429.84,-228 429.84,-228 429.84,-222 435.84,-216 441.84,-216 441.84,-216 512.84,-216 512.84,-216 518.84,-216 524.84,-222 524.84,-228 524.84,-228 524.84,-240 524.84,-240 524.84,-246 518.84,-252 512.84,-252"/>
<text text-anchor="middle" x="477.34" y="-231.5" font-family="sans" font-size="10.00">reproducible_idr</text>
</g>
<!-- 12&#45;&gt;11 -->
<g id="edge39" class="edge">
<title>12&#45;&gt;11</title>
<path fill="none" stroke="grey" stroke-width="2" d="M477.34,-215.7C477.34,-207.98 477.34,-198.71 477.34,-190.11"/>
<polygon fill="grey" stroke="grey" stroke-width="2" points="480.84,-190.1 477.34,-180.1 473.84,-190.1 480.84,-190.1"/>
</g>
<!-- 13&#45;&gt;12 -->
<g id="edge41" class="edge">
<title>13&#45;&gt;12</title>
<path fill="none" stroke="grey" stroke-width="2" d="M485.62,-287.7C484.41,-279.98 482.95,-270.71 481.6,-262.11"/>
<polygon fill="grey" stroke="grey" stroke-width="2" points="485.04,-261.44 480.03,-252.1 478.12,-262.53 485.04,-261.44"/>
</g>
<!-- 14&#45;&gt;0 -->
<g id="edge22" class="edge">
<title>14&#45;&gt;0</title>
<path fill="none" stroke="grey" stroke-width="2" d="M506.11,-74.45C510.92,-73.61 515.69,-72.78 520.34,-72 633.37,-52.95 767.57,-33.37 831.25,-24.26"/>
<polygon fill="grey" stroke="grey" stroke-width="2" points="831.81,-27.71 841.22,-22.83 830.82,-20.78 831.81,-27.71"/>
</g>
<!-- 15&#45;&gt;0 -->
<g id="edge9" class="edge">
<title>15&#45;&gt;0</title>
<path fill="none" stroke="grey" stroke-width="2" d="M772.41,-71.88C790.45,-61.93 813.28,-49.35 832.14,-38.95"/>
<polygon fill="grey" stroke="grey" stroke-width="2" points="833.97,-41.94 841.04,-34.05 830.59,-35.81 833.97,-41.94"/>
</g>
<!-- 16&#45;&gt;0 -->
<g id="edge27" class="edge">
<title>16&#45;&gt;0</title>
<path fill="none" stroke="grey" stroke-width="2" d="M1528.29,-143.71C1515.02,-122.67 1489.52,-87.99 1457.34,-72 1359.8,-23.54 1019.4,-19 905.67,-18.87"/>
<polygon fill="grey" stroke="grey" stroke-width="2" points="905.38,-15.37 895.38,-18.87 905.38,-22.37 905.38,-15.37"/>
</g>
<!-- 16&#45;&gt;33 -->
<g id="edge74" class="edge">
<title>16&#45;&gt;33</title>
<path fill="none" stroke="grey" stroke-width="2" d="M1566.22,-143.88C1581.13,-134.72 1599.67,-123.34 1615.72,-113.48"/>
<polygon fill="grey" stroke="grey" stroke-width="2" points="1617.65,-116.41 1624.34,-108.19 1613.99,-110.44 1617.65,-116.41"/>
</g>
<!-- 17&#45;&gt;0 -->
<g id="edge25" class="edge">
<title>17&#45;&gt;0</title>
<path fill="none" stroke="grey" stroke-width="2" d="M1823.56,-143.88C1795.19,-122.68 1743.19,-87.48 1692.34,-72 1542.31,-26.32 1046.81,-20.01 905.98,-19.14"/>
<polygon fill="grey" stroke="grey" stroke-width="2" points="905.72,-15.64 895.7,-19.08 905.68,-22.64 905.72,-15.64"/>
</g>
<!-- 17&#45;&gt;33 -->
<g id="edge69" class="edge">
<title>17&#45;&gt;33</title>
<path fill="none" stroke="grey" stroke-width="2" d="M1798.12,-143.88C1765.9,-132.19 1723.65,-116.87 1692.94,-105.73"/>
<polygon fill="grey" stroke="grey" stroke-width="2" points="1693.99,-102.39 1683.4,-102.27 1691.61,-108.97 1693.99,-102.39"/>
</g>
<!-- 18&#45;&gt;0 -->
<g id="edge16" class="edge">
<title>18&#45;&gt;0</title>
<path fill="none" stroke="grey" stroke-width="2" d="M2269.04,-226.45C2342.55,-216.73 2443.39,-193.97 2402.34,-144 2304.24,-24.6 1130.86,-18.92 905.6,-18.93"/>
<polygon fill="grey" stroke="grey" stroke-width="2" points="905.6,-15.43 895.6,-18.94 905.6,-22.43 905.6,-15.43"/>
</g>
<!-- 19 -->
<g id="node20" class="node">
<title>19</title>
<path fill="none" stroke="#80d856" stroke-width="2" d="M2102.84,-180C2102.84,-180 1983.84,-180 1983.84,-180 1977.84,-180 1971.84,-174 1971.84,-168 1971.84,-168 1971.84,-156 1971.84,-156 1971.84,-150 1977.84,-144 1983.84,-144 1983.84,-144 2102.84,-144 2102.84,-144 2108.84,-144 2114.84,-150 2114.84,-156 2114.84,-156 2114.84,-168 2114.84,-168 2114.84,-174 2108.84,-180 2102.84,-180"/>
<text text-anchor="middle" x="2043.34" y="-159.5" font-family="sans" font-size="10.00">deeptools_cor_scatterplot</text>
</g>
<!-- 18&#45;&gt;19 -->
<g id="edge49" class="edge">
<title>18&#45;&gt;19</title>
<path fill="none" stroke="grey" stroke-width="2" d="M2161.93,-215.88C2140.47,-206.31 2113.54,-194.3 2090.77,-184.15"/>
<polygon fill="grey" stroke="grey" stroke-width="2" points="2092.18,-180.94 2081.62,-180.07 2089.33,-187.34 2092.18,-180.94"/>
</g>
<!-- 20 -->
<g id="node21" class="node">
<title>20</title>
<path fill="none" stroke="#afd856" stroke-width="2" d="M2255.34,-180C2255.34,-180 2145.34,-180 2145.34,-180 2139.34,-180 2133.34,-174 2133.34,-168 2133.34,-168 2133.34,-156 2133.34,-156 2133.34,-150 2139.34,-144 2145.34,-144 2145.34,-144 2255.34,-144 2255.34,-144 2261.34,-144 2267.34,-150 2267.34,-156 2267.34,-156 2267.34,-168 2267.34,-168 2267.34,-174 2261.34,-180 2255.34,-180"/>
<text text-anchor="middle" x="2200.34" y="-159.5" font-family="sans" font-size="10.00">deeptools_cor_heatmap</text>
</g>
<!-- 18&#45;&gt;20 -->
<g id="edge50" class="edge">
<title>18&#45;&gt;20</title>
<path fill="none" stroke="grey" stroke-width="2" d="M2200.34,-215.7C2200.34,-207.98 2200.34,-198.71 2200.34,-190.11"/>
<polygon fill="grey" stroke="grey" stroke-width="2" points="2203.84,-190.1 2200.34,-180.1 2196.84,-190.1 2203.84,-190.1"/>
</g>
<!-- 21 -->
<g id="node22" class="node">
<title>21</title>
<path fill="none" stroke="#8fd856" stroke-width="2" d="M2380.84,-180C2380.84,-180 2297.84,-180 2297.84,-180 2291.84,-180 2285.84,-174 2285.84,-168 2285.84,-168 2285.84,-156 2285.84,-156 2285.84,-150 2291.84,-144 2297.84,-144 2297.84,-144 2380.84,-144 2380.84,-144 2386.84,-144 2392.84,-150 2392.84,-156 2392.84,-156 2392.84,-168 2392.84,-168 2392.84,-174 2386.84,-180 2380.84,-180"/>
<text text-anchor="middle" x="2339.34" y="-159.5" font-family="sans" font-size="10.00">deeptools_cor_pca</text>
</g>
<!-- 18&#45;&gt;21 -->
<g id="edge51" class="edge">
<title>18&#45;&gt;21</title>
<path fill="none" stroke="grey" stroke-width="2" d="M2234.34,-215.88C2252.94,-206.51 2276.16,-194.81 2296.04,-184.8"/>
<polygon fill="grey" stroke="grey" stroke-width="2" points="2297.85,-187.81 2305.2,-180.19 2294.7,-181.56 2297.85,-187.81"/>
</g>
<!-- 19&#45;&gt;0 -->
<g id="edge19" class="edge">
<title>19&#45;&gt;0</title>
<path fill="none" stroke="grey" stroke-width="2" d="M1997.86,-143.96C1939.76,-123.02 1835.63,-88.27 1743.34,-72 1578.48,-42.95 1050.78,-24.69 905.61,-20.13"/>
<polygon fill="grey" stroke="grey" stroke-width="2" points="905.55,-16.62 895.44,-19.81 905.33,-23.62 905.55,-16.62"/>
</g>
<!-- 19&#45;&gt;33 -->
<g id="edge77" class="edge">
<title>19&#45;&gt;33</title>
<path fill="none" stroke="grey" stroke-width="2" d="M1971.57,-146.68C1966.75,-145.76 1961.98,-144.86 1957.34,-144 1863.12,-126.5 1752.2,-107.67 1693.54,-97.85"/>
<polygon fill="grey" stroke="grey" stroke-width="2" points="1693.99,-94.38 1683.55,-96.18 1692.84,-101.28 1693.99,-94.38"/>
</g>
<!-- 20&#45;&gt;0 -->
<g id="edge24" class="edge">
<title>20&#45;&gt;0</title>
<path fill="none" stroke="grey" stroke-width="2" d="M2143.13,-143.97C2070.45,-123.11 1940.81,-88.54 1827.34,-72 1471.45,-20.13 1034.5,-18.04 905.72,-18.67"/>
<polygon fill="grey" stroke="grey" stroke-width="2" points="905.57,-15.17 895.59,-18.73 905.61,-22.17 905.57,-15.17"/>
</g>
<!-- 20&#45;&gt;33 -->
<g id="edge67" class="edge">
<title>20&#45;&gt;33</title>
<path fill="none" stroke="grey" stroke-width="2" d="M2133.28,-145.59C2130.26,-145.02 2127.27,-144.49 2124.34,-144 1966.18,-117.51 1775.93,-100.68 1693.61,-94.12"/>
<polygon fill="grey" stroke="grey" stroke-width="2" points="1693.67,-90.62 1683.42,-93.32 1693.12,-97.59 1693.67,-90.62"/>
</g>
<!-- 21&#45;&gt;0 -->
<g id="edge6" class="edge">
<title>21&#45;&gt;0</title>
<path fill="none" stroke="grey" stroke-width="2" d="M2285.67,-146.27C2207.68,-125.57 2058.15,-88.57 1928.34,-72 1530.61,-21.22 1043.14,-18.47 905.87,-18.79"/>
<polygon fill="grey" stroke="grey" stroke-width="2" points="905.49,-15.29 895.5,-18.82 905.51,-22.29 905.49,-15.29"/>
</g>
<!-- 21&#45;&gt;33 -->
<g id="edge66" class="edge">
<title>21&#45;&gt;33</title>
<path fill="none" stroke="grey" stroke-width="2" d="M2285.52,-145.8C2282.43,-145.14 2279.35,-144.53 2276.34,-144 2058.9,-105.75 1793.8,-94.83 1693.46,-91.95"/>
<polygon fill="grey" stroke="grey" stroke-width="2" points="1693.52,-88.45 1683.43,-91.68 1693.33,-95.45 1693.52,-88.45"/>
</g>
<!-- 22&#45;&gt;0 -->
<g id="edge18" class="edge">
<title>22&#45;&gt;0</title>
<path fill="none" stroke="grey" stroke-width="2" d="M796.23,-143.87C810.45,-119.24 836.79,-73.64 853.39,-44.88"/>
<polygon fill="grey" stroke="grey" stroke-width="2" points="856.44,-46.6 858.41,-36.19 850.38,-43.1 856.44,-46.6"/>
</g>
<!-- 22&#45;&gt;33 -->
<g id="edge75" class="edge">
<title>22&#45;&gt;33</title>
<path fill="none" stroke="grey" stroke-width="2" d="M840.07,-153.81C865.83,-150.52 897.15,-146.75 925.34,-144 1185.84,-118.59 1499.95,-99.64 1611.01,-93.3"/>
<polygon fill="grey" stroke="grey" stroke-width="2" points="1611.33,-96.79 1621.11,-92.73 1610.93,-89.8 1611.33,-96.79"/>
</g>
<!-- 23 -->
<g id="node24" class="node">
<title>23</title>
<path fill="none" stroke="#56d873" stroke-width="2" d="M1122.34,-180C1122.34,-180 946.34,-180 946.34,-180 940.34,-180 934.34,-174 934.34,-168 934.34,-168 934.34,-156 934.34,-156 934.34,-150 940.34,-144 946.34,-144 946.34,-144 1122.34,-144 1122.34,-144 1128.34,-144 1134.34,-150 1134.34,-156 1134.34,-156 1134.34,-168 1134.34,-168 1134.34,-174 1128.34,-180 1122.34,-180"/>
<text text-anchor="middle" x="1034.34" y="-159.5" font-family="sans" font-size="10.00">deeptools_tss_heatmap_downsample</text>
</g>
<!-- 23&#45;&gt;0 -->
<g id="edge14" class="edge">
<title>23&#45;&gt;0</title>
<path fill="none" stroke="grey" stroke-width="2" d="M1014.31,-143.87C984.9,-118.71 929.89,-71.65 896.44,-43.04"/>
<polygon fill="grey" stroke="grey" stroke-width="2" points="898.31,-40.03 888.43,-36.19 893.76,-45.35 898.31,-40.03"/>
</g>
<!-- 23&#45;&gt;33 -->
<g id="edge80" class="edge">
<title>23&#45;&gt;33</title>
<path fill="none" stroke="grey" stroke-width="2" d="M1134.39,-145.19C1137.41,-144.78 1140.39,-144.38 1143.34,-144 1316.72,-121.47 1524.32,-102.26 1611.07,-94.58"/>
<polygon fill="grey" stroke="grey" stroke-width="2" points="1611.63,-98.04 1621.29,-93.68 1611.02,-91.07 1611.63,-98.04"/>
</g>
<!-- 24&#45;&gt;0 -->
<g id="edge10" class="edge">
<title>24&#45;&gt;0</title>
<path fill="none" stroke="grey" stroke-width="2" d="M992.23,-221.17C969.68,-212.92 943,-199.77 925.34,-180 907.25,-159.76 885.89,-86.14 875.18,-45.83"/>
<polygon fill="grey" stroke="grey" stroke-width="2" points="878.55,-44.91 872.63,-36.12 871.78,-46.68 878.55,-44.91"/>
</g>
<!-- 24&#45;&gt;23 -->
<g id="edge53" class="edge">
<title>24&#45;&gt;23</title>
<path fill="none" stroke="grey" stroke-width="2" d="M1034.34,-215.7C1034.34,-207.98 1034.34,-198.71 1034.34,-190.11"/>
<polygon fill="grey" stroke="grey" stroke-width="2" points="1037.84,-190.1 1034.34,-180.1 1030.84,-190.1 1037.84,-190.1"/>
</g>
<!-- 25 -->
<g id="node26" class="node">
<title>25</title>
<path fill="none" stroke="#5663d8" stroke-width="2" d="M1263.84,-180C1263.84,-180 1164.84,-180 1164.84,-180 1158.84,-180 1152.84,-174 1152.84,-168 1152.84,-168 1152.84,-156 1152.84,-156 1152.84,-150 1158.84,-144 1164.84,-144 1164.84,-144 1263.84,-144 1263.84,-144 1269.84,-144 1275.84,-150 1275.84,-156 1275.84,-156 1275.84,-168 1275.84,-168 1275.84,-174 1269.84,-180 1263.84,-180"/>
<text text-anchor="middle" x="1214.34" y="-159.5" font-family="sans" font-size="10.00">tss_enrichment_score</text>
</g>
<!-- 24&#45;&gt;25 -->
<g id="edge55" class="edge">
<title>24&#45;&gt;25</title>
<path fill="none" stroke="grey" stroke-width="2" d="M1076.54,-216.59C1101.71,-206.8 1133.91,-194.28 1160.85,-183.8"/>
<polygon fill="grey" stroke="grey" stroke-width="2" points="1162.47,-186.93 1170.52,-180.04 1159.93,-180.4 1162.47,-186.93"/>
</g>
<!-- 24&#45;&gt;33 -->
<g id="edge73" class="edge">
<title>24&#45;&gt;33</title>
<path fill="none" stroke="grey" stroke-width="2" d="M1076.45,-231.62C1202.56,-227.15 1571.06,-211.5 1614.34,-180 1634.12,-165.6 1643.69,-138.79 1648.27,-118.34"/>
<polygon fill="grey" stroke="grey" stroke-width="2" points="1651.74,-118.81 1650.23,-108.33 1644.87,-117.47 1651.74,-118.81"/>
</g>
<!-- 25&#45;&gt;0 -->
<g id="edge7" class="edge">
<title>25&#45;&gt;0</title>
<path fill="none" stroke="grey" stroke-width="2" d="M1172.6,-143.87C1104.39,-115.88 970.12,-60.77 905.21,-34.13"/>
<polygon fill="grey" stroke="grey" stroke-width="2" points="906.36,-30.82 895.78,-30.26 903.7,-37.3 906.36,-30.82"/>
</g>
<!-- 25&#45;&gt;33 -->
<g id="edge68" class="edge">
<title>25&#45;&gt;33</title>
<path fill="none" stroke="grey" stroke-width="2" d="M1276.1,-145.66C1278.88,-145.08 1281.64,-144.52 1284.34,-144 1401.95,-121.3 1542.42,-103.66 1610.81,-95.67"/>
<polygon fill="grey" stroke="grey" stroke-width="2" points="1611.62,-99.1 1621.15,-94.47 1610.82,-92.15 1611.62,-99.1"/>
</g>
<!-- 26&#45;&gt;0 -->
<g id="edge5" class="edge">
<title>26&#45;&gt;0</title>
<path fill="none" stroke="grey" stroke-width="2" d="M619.27,-220.72C603.31,-211.88 584.51,-198.29 575.34,-180 549.7,-128.87 595.6,-100.24 645.34,-72 704.73,-38.28 784.72,-25.95 830.99,-21.49"/>
<polygon fill="grey" stroke="grey" stroke-width="2" points="831.52,-24.95 841.17,-20.58 830.89,-17.98 831.52,-24.95"/>
</g>
<!-- 26&#45;&gt;30 -->
<g id="edge61" class="edge">
<title>26&#45;&gt;30</title>
<path fill="none" stroke="grey" stroke-width="2" d="M642.38,-215.7C640.62,-207.98 638.5,-198.71 636.53,-190.11"/>
<polygon fill="grey" stroke="grey" stroke-width="2" points="639.89,-189.07 634.25,-180.1 633.06,-190.63 639.89,-189.07"/>
</g>
<!-- 27 -->
<g id="node28" class="node">
<title>27</title>
<path fill="none" stroke="#56d8a9" stroke-width="2" d="M282.34,-108C282.34,-108 252.34,-108 252.34,-108 246.34,-108 240.34,-102 240.34,-96 240.34,-96 240.34,-84 240.34,-84 240.34,-78 246.34,-72 252.34,-72 252.34,-72 282.34,-72 282.34,-72 288.34,-72 294.34,-78 294.34,-84 294.34,-84 294.34,-96 294.34,-96 294.34,-102 288.34,-108 282.34,-108"/>
<text text-anchor="middle" x="267.34" y="-87.5" font-family="sans" font-size="10.00">idr</text>
</g>
<!-- 27&#45;&gt;0 -->
<g id="edge20" class="edge">
<title>27&#45;&gt;0</title>
<path fill="none" stroke="grey" stroke-width="2" d="M294.75,-76.33C299.21,-74.64 303.85,-73.12 308.34,-72 500.92,-24.11 740.61,-18.86 831.28,-18.72"/>
<polygon fill="grey" stroke="grey" stroke-width="2" points="831.34,-22.22 841.34,-18.73 831.34,-15.22 831.34,-22.22"/>
</g>
<!-- 28&#45;&gt;27 -->
<g id="edge58" class="edge">
<title>28&#45;&gt;27</title>
<path fill="none" stroke="grey" stroke-width="2" d="M290.33,-287.85C286.01,-250.83 275.77,-163.18 270.54,-118.39"/>
<polygon fill="grey" stroke="grey" stroke-width="2" points="273.99,-117.76 269.35,-108.23 267.03,-118.57 273.99,-117.76"/>
</g>
<!-- 29&#45;&gt;0 -->
<g id="edge21" class="edge">
<title>29&#45;&gt;0</title>
<path fill="none" stroke="grey" stroke-width="2" d="M2516.59,-143.73C2500.91,-122.38 2470.97,-87.01 2435.34,-72 2362.64,-41.38 1136.64,-22.76 905.69,-19.51"/>
<polygon fill="grey" stroke="grey" stroke-width="2" points="905.5,-16.01 895.45,-19.37 905.4,-23.01 905.5,-16.01"/>
</g>
<!-- 29&#45;&gt;33 -->
<g id="edge81" class="edge">
<title>29&#45;&gt;33</title>
<path fill="none" stroke="grey" stroke-width="2" d="M2449.12,-149.53C2433.63,-147.51 2417.49,-145.56 2402.34,-144 2132.83,-116.32 1807.33,-98.69 1693.79,-93"/>
<polygon fill="grey" stroke="grey" stroke-width="2" points="1693.64,-89.49 1683.48,-92.49 1693.29,-96.48 1693.64,-89.49"/>
</g>
<!-- 30&#45;&gt;0 -->
<g id="edge1" class="edge">
<title>30&#45;&gt;0</title>
<path fill="none" stroke="grey" stroke-width="2" d="M634.24,-143.92C639.74,-123.77 651.72,-90.63 674.34,-72 719.42,-34.85 788.45,-23.62 830.86,-20.3"/>
<polygon fill="grey" stroke="grey" stroke-width="2" points="831.29,-23.78 841.04,-19.61 830.82,-16.79 831.29,-23.78"/>
</g>
<!-- 30&#45;&gt;33 -->
<g id="edge70" class="edge">
<title>30&#45;&gt;33</title>
<path fill="none" stroke="grey" stroke-width="2" d="M676.52,-151.39C691.41,-148.61 708.02,-145.83 723.34,-144 1064.24,-103.28 1479.39,-93.64 1610.56,-91.54"/>
<polygon fill="grey" stroke="grey" stroke-width="2" points="1610.99,-95.04 1620.94,-91.38 1610.88,-88.04 1610.99,-95.04"/>
</g>
<!-- 31&#45;&gt;0 -->
<g id="edge15" class="edge">
<title>31&#45;&gt;0</title>
<path fill="none" stroke="grey" stroke-width="2" d="M1297.92,-143.97C1237.85,-125.89 1139.98,-96.59 1055.34,-72 1003.5,-56.94 943.43,-40.01 905.66,-29.42"/>
<polygon fill="grey" stroke="grey" stroke-width="2" points="906.2,-25.94 895.62,-26.61 904.31,-32.68 906.2,-25.94"/>
</g>
<!-- 31&#45;&gt;33 -->
<g id="edge65" class="edge">
<title>31&#45;&gt;33</title>
<path fill="none" stroke="grey" stroke-width="2" d="M1415,-146.75C1473.43,-133.02 1560.23,-112.64 1611.07,-100.69"/>
<polygon fill="grey" stroke="grey" stroke-width="2" points="1612.11,-104.05 1621.04,-98.35 1610.51,-97.23 1612.11,-104.05"/>
</g>
<!-- 32&#45;&gt;0 -->
<g id="edge23" class="edge">
<title>32&#45;&gt;0</title>
<path fill="none" stroke="grey" stroke-width="2" d="M107.88,-75.1C112.73,-73.91 117.61,-72.84 122.34,-72 391.12,-24.27 721.59,-19.19 831.13,-18.9"/>
<polygon fill="grey" stroke="grey" stroke-width="2" points="831.33,-22.4 841.33,-18.89 831.32,-15.4 831.33,-22.4"/>
</g>
<!-- 33&#45;&gt;0 -->
<g id="edge17" class="edge">
<title>33&#45;&gt;0</title>
<path fill="none" stroke="grey" stroke-width="2" d="M1621.09,-84.39C1595.21,-80.69 1557.44,-75.53 1524.34,-72 1289.48,-46.93 1006.17,-27.79 905.8,-21.35"/>
<polygon fill="grey" stroke="grey" stroke-width="2" points="905.77,-17.84 895.57,-20.7 905.32,-24.83 905.77,-17.84"/>
</g>
</g>
</svg>
